<?xml version="1.0" encoding="UTF-8"?>
<svg id="Layer_1" xmlns="http://www.w3.org/2000/svg" version="1.1" viewBox="0 0 600 600">
  <!-- Generator: Adobe Illustrator 29.1.0, SVG Export Plug-In . SVG Version: 2.1.0 Build 142)  -->
  <defs>
    <style>
      .st0 {
        fill: #258baf;
      }

      .st1 {
        fill: #43aaa8;
      }

      .st2 {
        fill: #25bc89;
      }

      .st3 {
        fill: #256dbc;
      }
    </style>
  </defs>
  <g>
    <path class="st1" d="M397.6146229,289.1723619l.0448056-.009916c-.0260754-.1946471-.0760225-.3742366-.1031997-.5681491-.0190974-.0969563-.032686-.1946471-.0528852-.2912361-6.8501083-48.0826039-47.4711182-76.0611021-98.222958-76.809208-59.0816331-.0675756-100.3111906,45.3957396-99.4914693,97.4946841.7234995,46.2349256-3.6163959,92.4988647-12.8944511,137.4803365-2.5943151,12.5183783,5.4684813,24.7763701,17.9773108,27.3512205,12.5855866,2.5752176,24.7569054-5.4585653,27.3512205-17.9769435,9.9721741-48.3084679,14.6304827-97.9673459,13.8588723-147.5781131-.3951703-25.0268405,19.2116671-50.6229319,52.5135795-50.4785993,25.9222171.3892942,47.9074215,18.1385373,53.9128349,41.5332804l.0591286-.0132213c2.7313026,9.7709163,11.6039042,16.979469,22.2463253,16.979469,12.8107161,0,23.1956889-10.38534,23.1956889-23.1960562,0-1.3419631-.1759169-2.6380189-.394803-3.917548Z"/>
    <path class="st0" d="M195.8926692,224.9766521c8.0532476-9.9145144,6.5485889-24.4869703-3.3659255-32.5593154-9.9336119-8.0433316-24.4675056-6.5581377-32.5593154,3.3560095-24.7087945,30.3800026-37.9888672,68.7449426-37.3718727,108.0170116.5692509,36.2432869-2.3820396,72.5930787-8.7859286,108.0647552-2.2568044,12.5859538,6.0854758,24.6221215,18.6714296,26.8983906,19.3949292,3.3754742,26.1073155-14.2834233,26.8980233-18.6714296,6.9345778-38.4233342,10.1267899-77.7916249,9.5094282-117.0152157-.4531972-28.817317,8.8729689-55.8214781,27.0041611-78.0902062Z"/>
    <path class="st1" d="M398.7083191,376.9053111c.0157921-12.0156012-10.8756303-21.6032554-23.1391311-21.6032554-12.265337,0-22.2026215,9.5501939-23.0355641,21.6032554,0,0-4.627459,48.7737847-8.6000957,72.8233499-2.0926398,12.5955026,6.4519999,24.5159837,19.0574185,26.5990748,19.259778,3.2116769,25.8564778-14.5629071,26.5990748-19.0669672,4.2076823-25.4242144,7.1317957-51.1628022,8.9163054-77.000917.07235-.6103839.2019923-3.3545405.2019923-3.3545405Z"/>
    <path class="st0" d="M298.1036888,132.3040741c-14.8618557-.3955376-29.7721895,1.3886049-44.1518346,4.7930926-12.4317052,2.9512905-20.1279774,15.4116419-17.1961516,27.8624445,2.9512905,12.4317052,15.4311066,20.0894153,27.8628118,17.1961516,10.6567442-2.5171908,21.670831-3.6362279,32.7906883-3.5587363,72.7473274,1.0896564,132.8315766,59.3126388,133.9406977,129.7936131.5692509,36.5326867-1.2343563,73.4032513-5.381441,109.5888786-1.4466318,12.7016403,7.6672588,24.1880218,20.3593504,25.6346536,16.1252254,1.8807315,24.6026568-11.457368,25.6346536-20.3593504,4.3821302-38.3664091,6.2797556-76.9763107,5.6803895-115.5876813-1.5042914-95.2378797-82.04448-173.9164342-179.5391641-175.363066Z"/>
  </g>
  <path class="st2" d="M300.1096556,290.3171071c-12.7787646,0-23.1464762,10.3581629-23.1464762,23.1464762,1.0995724,69.6803504-7.8505208,136.853426-26.7147613,204.0265017-2.6328772,9.374277,2.0735423,29.4052981,22.2977415,29.4052981,10.1073252,0,19.3945619-6.6738241,22.2687281-16.8968358,13.0486997-46.2059122,29.9359869-120.9496576,28.4316954-216.5349639.0095487-12.7787646-10.3486142-23.1464762-23.1369275-23.1464762Z"/>
  <path class="st3" d="M496.8835335,194.1820145c-10.4738494,7.3201994-24.8920566,4.8224733-32.2317207-5.6513761-38.4710778-54.808946-101.4294932-88.1108584-168.4093908-89.104293-54.3366514-.7811591-105.0466236,19.346451-142.428045,56.7668019-35.8000057,35.8191031-55.0788811,83.4235363-54.2782573,134.0563842l-.1546159,22.7994168c-.3661569,12.5374757-10.6567442,22.4710876-23.1174628,22.4710876-.2313729,0-.4726619,0-.6941188-.0190974-12.7791319-.3665241-22.8284303-11.0331843-22.4523574-23.8119489l.1156865-20.7064098c-1.0029834-63.2768286,23.0983654-122.7532648,67.8194508-167.5320099,46.3025012-46.3219659,108.5568818-71.1368982,175.8647413-70.3267256,81.7745449,1.2248076,158.6303948,41.8950302,205.5983687,108.8172682,7.3488455,10.4543847,4.822106,24.8920566-5.6322786,32.2409021ZM541.2090814,249.434609h-.0003673c-2.7581124-12.4603514-14.9580774-20.4460234-27.5921422-17.6203354-12.4798161,2.7584797-20.3688991,15.1031446-17.6107867,27.5925094,4.5426222,20.6487502,4.735433,36.0798568,4.5327062,59.4092278-.1057705,12.7982293,10.1749008,23.2335165,22.9536655,23.3396543h.1928108c12.7016403,0,23.0407058-10.2329277,23.1464762-22.9536655.1737133-21.3913472.3859888-42.5414054-5.6223626-69.7673907Z"/>
</svg>
